{
  "accessors": [
    {
      "bufferView": 2,
      "componentType": 5126,
      "count": 3223,
      "max": [
        0.17455635964870453,
        0.07017652690410614,
        0.21236845850944519
      ],
      "min": [
        -0.17648206651210785,
        -0.065524868667125702,
        0.0025902197230607271
      ],
      "type": "VEC3"
    },
    {
      "bufferView": 2,
      "byteOffset": 38676,
      "componentType": 5126,
      "count": 3223,
      "max": [
        0.99944615364074707,
        0.99997508525848389,
        0.99995696544647217
      ],
      "min": [
        -0.99775320291519165,
        -0.99994707107543945,
        -1
      ],
      "type": "VEC3"
    },
    {
      "bufferView": 1,
      "componentType": 5126,
      "count": 3223,
      "max": [
        0.99868488311767578,
        0.99975395202636719
      ],
      "min": [
        0.00098388339392840862,
        0.0030183717608451843
      ],
      "type": "VEC2"
    },
    {
      "bufferView": 1,
      "byteOffset": 25784,
      "componentType": 5126,
      "count": 3223,
      "max": [
        0.99868488311767578,
        0.99975395202636719
      ],
      "min": [
        0.00098388339392840862,
        0.0030183717608451843
      ],
      "type": "VEC2"
    },
    {
      "bufferView": 0,
      "componentType": 5125,
      "count": 13563,
      "max": [
        3222
      ],
      "min": [
        0
      ],
      "type": "SCALAR"
    },
    {
      "bufferView": 2,
      "byteOffset": 77352,
      "componentType": 5126,
      "count": 3223,
      "max": [
        0.030643880367279053,
        0.091145940124988556,
        0.10905337333679199
      ],
      "min": [
        -0.034367822110652924,
        -0.089358113706111908,
        0.0013301043072715402
      ],
      "type": "VEC3"
    },
    {
      "bufferView": 2,
      "byteOffset": 116028,
      "componentType": 5126,
      "count": 3223,
      "max": [
        0.99989521503448486,
        0.99933195114135742,
        0.99995720386505127
      ],
      "min": [
        -0.99986910820007324,
        -0.99926626682281494,
        -1
      ],
      "type": "VEC3"
    },
    {
      "bufferView": 1,
      "byteOffset": 51568,
      "componentType": 5126,
      "count": 3223,
      "max": [
        0.99868488311767578,
        0.99975395202636719
      ],
      "min": [
        0.00098388339392840862,
        0.0030183717608451843
      ],
      "type": "VEC2"
    },
    {
      "bufferView": 1,
      "byteOffset": 77352,
      "componentType": 5126,
      "count": 3223,
      "max": [
        0.99868488311767578,
        0.99975395202636719
      ],
      "min": [
        0.00098388339392840862,
        0.0030183717608451843
      ],
      "type": "VEC2"
    },
    {
      "bufferView": 0,
      "byteOffset": 54252,
      "componentType": 5125,
      "count": 13563,
      "max": [
        3222
      ],
      "min": [
        0
      ],
      "type": "SCALAR"
    }
  ],
  "asset": {
    "extras": {
      "author": "yanix (https://sketchfab.com/yanix)",
      "license": "CC-BY-4.0 (http://creativecommons.org/licenses/by/4.0/)",
      "source": "https://sketchfab.com/3d-models/brown-sneakers-e6c51d2e77d945d1a0efbca530fb4b5b",
      "title": "Brown Sneakers"
    },
    "generator": "Sketchfab-7.91.0",
    "version": "2.0"
  },
  "bufferViews": [
    {
      "buffer": 0,
      "byteLength": 108504,
      "byteOffset": 0,
      "name": "floatBufferViews",
      "target": 34963
    },
    {
      "buffer": 0,
      "byteLength": 103136,
      "byteOffset": 108504,
      "byteStride": 8,
      "name": "floatBufferViews",
      "target": 34962
    },
    {
      "buffer": 0,
      "byteLength": 154704,
      "byteOffset": 211640,
      "byteStride": 12,
      "name": "floatBufferViews",
      "target": 34962
    }
  ],
  "buffers": [
    {
      "byteLength": 366344,
      "uri": "scene.bin"
    }
  ],
  "extensionsRequired": [
    "KHR_materials_pbrSpecularGlossiness"
  ],
  "extensionsUsed": [
    "KHR_materials_pbrSpecularGlossiness"
  ],
  "images": [
    {
      "uri": "textures/rb_r_diffuse.png"
    },
    {
      "uri": "textures/rb_r_specularGlossiness.png"
    }
  ],
  "materials": [
    {
      "doubleSided": true,
      "extensions": {
        "KHR_materials_pbrSpecularGlossiness": {
          "diffuseFactor": [
            1,
            1,
            1,
            1
          ],
          "diffuseTexture": {
            "index": 0,
            "texCoord": 0
          },
          "glossinessFactor": 1,
          "specularFactor": [
            0.032202743902439025,
            0.032202743902439025,
            0.032202743902439025
          ],
          "specularGlossinessTexture": {
            "index": 1,
            "texCoord": 0
          }
        }
      },
      "name": "rb_r"
    }
  ],
  "meshes": [
    {
      "name": "rb1.004_rb_r_0",
      "primitives": [
        {
          "attributes": {
            "NORMAL": 1,
            "POSITION": 0,
            "TEXCOORD_0": 2,
            "TEXCOORD_1": 3
          },
          "indices": 4,
          "material": 0,
          "mode": 4
        }
      ]
    },
    {
      "name": "rb1.000_rb_r_0",
      "primitives": [
        {
          "attributes": {
            "NORMAL": 6,
            "POSITION": 5,
            "TEXCOORD_0": 7,
            "TEXCOORD_1": 8
          },
          "indices": 9,
          "material": 0,
          "mode": 4
        }
      ]
    }
  ],
  "nodes": [
    {
      "children": [
        1
      ],
      "name": "RootNode (gltf orientation matrix)",
      "rotation": [
        -0.70710678118654746,
        -0,
        -0,
        0.70710678118654757
      ]
    },
    {
      "children": [
        2
      ],
      "name": "RootNode (model correction matrix)"
    },
    {
      "children": [
        3
      ],
      "matrix": [
        1,
        0,
        0,
        0,
        0,
        0,
        1,
        0,
        0,
        -1,
        0,
        0,
        0,
        0,
        0,
        1
      ],
      "name": "brown_sneakers.fbx"
    },
    {
      "children": [
        4,
        6
      ],
      "name": "RootNode"
    },
    {
      "children": [
        5
      ],
      "matrix": [
        -5.5520822691731535,
        2.8505542822292607e-15,
        51.049992370345059,
        0,
        51.049992370342544,
        1.6119931642679841e-05,
        5.5520822691728888,
        0,
        -1.6025433852651464e-05,
        51.351020812985752,
        -1.7428901180609523e-06,
        0,
        -6.4601955413818359,
        -0.031959977000951767,
        0.062389403581619263,
        1
      ],
      "name": "rb1.004"
    },
    {
      "mesh": 0,
      "name": "rb1.004_rb_r_0"
    },
    {
      "children": [
        7
      ],
      "matrix": [
        89.299153517580081,
        -2.7755575615628914e-15,
        -45.007345856467325,
        0,
        -45.007345856467282,
        -4.3711390063094768e-06,
        -89.299153517579981,
        0,
        -1.9673336459913315e-06,
        99.999999999999901,
        -3.9033901222396139e-06,
        0,
        8.2305212020874023,
        -0.031959977000951767,
        0.062389403581619263,
        1
      ],
      "name": "rb1.000"
    },
    {
      "mesh": 1,
      "name": "rb1.000_rb_r_0"
    }
  ],
  "samplers": [
    {
      "magFilter": 9729,
      "minFilter": 9987,
      "wrapS": 10497,
      "wrapT": 10497
    }
  ],
  "scene": 0,
  "scenes": [
    {
      "name": "OSG_Scene",
      "nodes": [
        0
      ]
    }
  ],
  "textures": [
    {
      "sampler": 0,
      "source": 0
    },
    {
      "sampler": 0,
      "source": 1
    }
  ]
}

